<?xml version="1.0" encoding="utf-8"?>
<!-- Generator: Adobe Illustrator 22.0.1, SVG Export Plug-In . SVG Version: 6.00 Build 0)  -->
<svg version="1.1" id="Capa_1" xmlns="http://www.w3.org/2000/svg" xmlns:xlink="http://www.w3.org/1999/xlink" x="0px" y="0px"
	 viewBox="0 0 60 60" style="enable-background:new 0 0 60 60;" xml:space="preserve">
<style type="text/css">
	.st0{fill:#D1D4D2;}
	.st1{fill:#FCC62D;}
	.st2{fill:#FFD949;}
	.st3{fill:#F0C41B;}
	.st4{fill:#E4AF18;}
	.st5{fill:#CE9912;}
</style>
<g id="XMLID_19_">
	<path id="XMLID_122_" class="st0" d="M3.3,54.4c-0.3,0.4-0.2,1.1,0.2,1.4C3.7,55.9,3.9,56,4.1,56c0.3,0,0.6-0.1,0.8-0.4l2-2.6
		c2.5,5.7,5.8,7,8.2,7c2.1,0,5.2-1.1,7.8-6.6c0.2-0.5,0-1.1-0.5-1.3c-0.5-0.2-1.1,0-1.3,0.5c-1.7,3.5-3.8,5.4-6,5.4
		c-3.1,0-5.2-3-6.5-6h3.5c0.6,0,1-0.4,1-1s-0.4-1-1-1h-5c-0.1,0-0.2,0-0.3,0.1c0,0,0,0,0,0c0,0,0,0,0,0c0,0,0,0,0,0
		c-0.1,0-0.1,0.1-0.2,0.1c0,0-0.1,0-0.1,0.1c0,0-0.1,0.1-0.1,0.1c0,0,0,0-0.1,0.1L3.3,54.4"/>
	<path id="XMLID_121_" class="st0" d="M45.9,0c-2.1,0-5.2,1.1-7.8,6.6c-0.2,0.5,0,1.1,0.5,1.3c0.5,0.2,1.1,0,1.3-0.5
		c1.7-3.5,3.8-5.4,6-5.4c3.1,0,5.2,3,6.5,6h-3.5c-0.6,0-1,0.4-1,1s0.4,1,1,1h5c0,0,0,0,0,0c0,0,0,0,0,0h0c0.1,0,0.1,0,0.2,0
		c0,0,0.1,0,0.1,0c0,0,0,0,0,0c0,0,0.1,0,0.1,0c0,0,0.1,0,0.1-0.1c0.1-0.1,0.2-0.1,0.2-0.2c0,0,0,0,0,0l3-4c0.3-0.4,0.2-1.1-0.2-1.4
		c-0.4-0.3-1.1-0.2-1.4,0.2l-2,2.6C51.6,1.3,48.3,0,45.9,0"/>
	<path id="XMLID_120_" class="st1" d="M1,26c0-7.7,13-14,29-14s29,6.3,29,14S46,40,30,40S1,33.7,1,26"/>
	<path id="XMLID_119_" class="st2" d="M30,36C14.7,36,5,30.1,5,26s9.7-11,25-11s25,6.9,25,11S45.3,36,30,36"/>
	<path id="XMLID_118_" class="st3" d="M21.5,26.7c0.3,1.8,1.5,3.4,4.2,4.2l-0.1,1.3c0,0.3-0.3,0.6-0.7,0.8l-5.2,2
		c3.1,0.6,6.6,1,10.5,1c3.9,0,7.5-0.4,10.6-1.1L35.3,33c-0.4-0.2-0.7-0.5-0.8-0.8l-0.1-1.3c2.7-0.9,3.9-2.4,4.2-4.2
		c1-0.2,1.6-0.8,1.4-1.5l-0.2-0.7c-0.2-0.5-0.8-1-1.6-1.2c-0.3-0.7-0.7-1.3-1.2-1.8c-0.9-0.9-1.1-0.8-0.9-1.7c0-0.2,0.1-0.4,0.1-0.6
		c0-0.1-0.3-0.2-0.4-0.1c-0.2,0.2-0.6,0.4-1.1,0.5c-1.1,0.4-2.5,0.5-3.9,0.5c-0.2,0-0.4,0-0.6,0c-4.2,0-6.9,0.8-8,3.2
		c-0.8,0.2-1.5,0.7-1.6,1.2l-0.2,0.7C19.9,25.9,20.5,26.5,21.5,26.7"/>
	<path id="XMLID_117_" class="st4" d="M30,40C14,40,1,33.7,1,26v9c0,7.7,13,14,29,14s29-6.3,29-14v-9C59,33.7,46,40,30,40"/>
	<path id="XMLID_116_" class="st5" d="M56,32.2c-0.6,0.6-1.3,1.1-2,1.7v9c0.7-0.5,1.4-1.1,2-1.7V32.2"/>
	<path id="XMLID_115_" class="st5" d="M6,33.9c-0.7-0.5-1.4-1.1-2-1.7v9c0.6,0.6,1.3,1.1,2,1.7V33.9"/>
	<path id="XMLID_114_" class="st5" d="M52,35.1c-0.6,0.4-1.3,0.7-2,1v9c0.7-0.3,1.4-0.7,2-1V35.1"/>
	<path id="XMLID_113_" class="st5" d="M10,36.1c-0.7-0.3-1.4-0.7-2-1v9c0.6,0.4,1.3,0.7,2,1V36.1"/>
	<path id="XMLID_112_" class="st5" d="M48,37c-0.6,0.2-1.3,0.5-2,0.7v9c0.7-0.2,1.4-0.5,2-0.7V37"/>
	<path id="XMLID_111_" class="st5" d="M14,37.7c-0.7-0.2-1.4-0.5-2-0.7v9c0.6,0.2,1.3,0.5,2,0.7V37.7"/>
	<path id="XMLID_110_" class="st5" d="M44,38.3c-0.7,0.2-1.3,0.3-2,0.5v9c0.7-0.1,1.3-0.3,2-0.5V38.3"/>
	<path id="XMLID_109_" class="st5" d="M18,38.7c-0.7-0.1-1.3-0.3-2-0.5v9c0.7,0.2,1.3,0.3,2,0.5V38.7"/>
	<path id="XMLID_108_" class="st5" d="M39,39.3c-0.7,0.1-1.3,0.2-2,0.3v9c0.7-0.1,1.3-0.2,2-0.3V39.3"/>
	<path id="XMLID_107_" class="st5" d="M23,39.6c-0.7-0.1-1.3-0.2-2-0.3v9c0.7,0.1,1.3,0.2,2,0.3V39.6"/>
	<path id="XMLID_106_" class="st5" d="M34,39.9c-0.7,0-1.3,0.1-2,0.1v9c0.7,0,1.3-0.1,2-0.1V39.9"/>
	<path id="XMLID_105_" class="st5" d="M28,40c-0.7,0-1.3-0.1-2-0.1v9c0.7,0,1.3,0.1,2,0.1V40"/>
</g>
</svg>
